:SAMPLES-PER-SECOND 30
:FULLY-SPECIFIED
:DEGREES
265
root  -27.7902 34.5292 3.55213 -176.023 61.2701 175.75
RightUpLeg  -6.694 -19.04 -9.44356
RightLeg  6.36306 0.165013 0.00881998
RightFoot  9.68359 0.039638 0.182887
RightToes  -33.9813 -0.176766 -0.279828
Spine  -1.95962 0.50876 -1.18721
Spine1  -4.02015 1.01856 -1.75204
HEad  -45.4154 14.1004 -4.09083
LeftShoulder1  -1.94126e-019 -3.10601e-018 -2.51263e-017
LeftArm  -10.5949 23.0353 -80.1436
LeftForeArm  34.6215 -14.5514 -2.33773
LeftHand  -0.435883 -2.01223 7.02839
RightShoulder  -4.96962e-017 0 -2.36833e-017
RightArm  -33.0568 -22.905 77.8205
RightForeArm  60.229 11.2649 1.51994
RightHand  -0.321134 -1.83617 -10.3065
LeftUpLeg  -6.06311 -0.304743 -3.44645
LeftLeg  6.59504 16.0486 0.80511
LeftFoot  2.34945 -0.0146619 0.803345
LeftToes  -14.4115 1.49739e-006 1.00523e-007
266
root  -27.7969 34.5076 3.50886 -175.902 61.186 175.897
RightUpLeg  -7.04639 -19.1235 -9.45792
RightLeg  7.16558 0.149014 0.0101889
RightFoot  9.4736 0.0403955 0.178419
RightToes  -34.0358 -0.177473 -0.280111
Spine  -1.92443 0.506456 -1.16944
Spine1  -3.93992 0.989591 -1.70583
HEad  -44.8727 13.6325 -4.13599
LeftShoulder1  -1.94126e-019 -3.10601e-018 -2.51263e-017
LeftArm  -12.2039 23.6299 -80.1054
LeftForeArm  34.4678 -12.9326 -2.10364
LeftHand  -0.429422 -1.8445 7.07484
RightShoulder  -4.96962e-017 0 -2.36833e-017
RightArm  -33.7367 -23.9071 77.5551
RightForeArm  60.4687 11.0282 1.52983
RightHand  -0.305093 -2.01041 -10.2617
LeftUpLeg  -6.46115 -0.412515 -3.44965
LeftLeg  7.50125 16.0791 1.05827
LeftFoot  1.86971 -0.00820273 0.664257
LeftToes  -14.1678 1.49739e-006 1.00523e-007
267
root  -27.8138 34.4867 3.45853 -175.77 61.138 176.056
RightUpLeg  -7.38565 -19.1251 -9.4668
RightLeg  7.8922 0.0493053 0.00475202
RightFoot  9.37027 0.0419363 0.161804
RightToes  -34.1954 -0.178166 -0.280529
Spine  -1.89805 0.503231 -1.15092
Spine1  -3.87539 0.968138 -1.65633
HEad  -45.0717 13.2394 -4.32212
LeftShoulder1  -1.94126e-019 -3.10601e-018 -2.51263e-017
LeftArm  -13.3072 24.67 -80.0115
LeftForeArm  34.5048 -12.6627 -2.07506
LeftHand  -0.425003 -1.8511 6.99795
RightShoulder  -4.96962e-017 0 -2.36833e-017
RightArm  -33.9527 -24.8728 77.243
RightForeArm  60.2045 10.9642 1.53238
RightHand  -0.299963 -2.03855 -10.165
LeftUpLeg  -6.85728 -0.624573 -3.46805
LeftLeg  8.3881 16.2363 1.31747
LeftFoot  1.40249 -0.00454025 0.532523
LeftToes  -13.9292 1.49739e-006 1.00523e-007
268
root  -27.8368 34.4689 3.40523 -175.62 61.1205 176.236
RightUpLeg  -7.6726 -19.3321 -9.45033
RightLeg  8.45608 0.0735942 0.00725264
RightFoot  9.33116 0.0420133 0.165015
RightToes  -34.1231 -0.178838 -0.281108
Spine  -1.87544 0.503452 -1.13946
Spine1  -3.81601 0.941199 -1.62445
HEad  -45.6937 13.0379 -4.51018
LeftShoulder1  -1.94126e-019 -3.10601e-018 -2.51263e-017
LeftArm  -13.7491 25.8694 -79.8649
LeftForeArm  34.4539 -12.7554 -2.08257
LeftHand  -0.422079 -1.82146 6.97734
RightShoulder  -4.96962e-017 0 -2.36833e-017
RightArm  -34.2585 -25.7177 76.9862
RightForeArm  60.4997 10.8858 1.53376
RightHand  -0.320618 -1.91292 -10.5081
LeftUpLeg  -7.28053 -0.747719 -3.48006
LeftLeg  9.31233 16.3216 1.58577
LeftFoot  0.961917 -0.00203959 0.404552
LeftToes  -13.5644 1.49739e-006 1.00523e-007
269
root  -27.8723 34.4557 3.34424 -175.423 61.181 176.432
RightUpLeg  -7.91662 -19.5351 -9.43958
RightLeg  8.79256 0.232188 0.0218488
RightFoot  9.47266 0.0403695 0.191585
RightToes  -34.3183 -0.179481 -0.281871
Spine  -1.88526 0.512018 -1.11435
Spine1  -3.82368 0.958818 -1.57327
HEad  -46.241 13.0181 -4.79528
LeftShoulder1  -1.94126e-019 -3.10601e-018 -2.51263e-017
LeftArm  -13.9018 27.1355 -79.7628
LeftForeArm  34.2587 -12.919 -2.09553
LeftHand  -0.427037 -1.96803 6.9276
RightShoulder  -4.96962e-017 0 -2.36833e-017
RightArm  -35.2032 -26.1793 76.7586
RightForeArm  60.2675 10.712 1.53836
RightHand  -0.290468 -2.16528 -10.2043
LeftUpLeg  -7.67724 -0.981125 -3.51309
LeftLeg  10.1142 16.6027 1.8437
LeftFoot  0.554472 -0.00061101 0.287879
LeftToes  -13.0666 1.49739e-006 1.00523e-007
270
root  -27.9197 34.4457 3.28391 -175.234 61.3679 176.602
RightUpLeg  -8.19786 -19.559 -9.45097
RightLeg  9.08845 0.44928 0.0435775
RightFoot  9.64932 0.0378246 0.229663
RightToes  -34.5716 -0.180086 -0.282841
Spine  -1.90658 0.555208 -1.09922
Spine1  -3.85538 1.05233 -1.54402
HEad  -46.476 13.1806 -4.91107
LeftShoulder1  -1.94126e-019 -3.10601e-018 -2.51263e-017
LeftArm  -14.2586 28.1905 -79.7068
LeftForeArm  33.9043 -12.9385 -2.09988
LeftHand  -0.411596 -1.98016 6.67363
RightShoulder  -4.96962e-017 0 -2.36833e-017
RightArm  -35.8798 -26.5311 76.5664
RightForeArm  60.2652 10.585 1.53998
RightHand  -0.284385 -2.20643 -10.107
LeftUpLeg  -8.04893 -1.06697 -3.57001
LeftLeg  10.8179 16.8238 2.07375
LeftFoot  0.22639 -5.90415e-005 0.19155
LeftToes  -12.533 1.49739e-006 1.00523e-007
271
root  -27.9819 34.4354 3.22173 -175.086 61.6505 176.757
RightUpLeg  -8.52836 -19.4424 -9.47607
RightLeg  9.42701 0.62053 0.063456
RightFoot  9.8517 0.0355206 0.262798
RightToes  -34.8217 -0.180648 -0.284042
Spine  -1.91645 0.625289 -1.09636
Spine1  -3.8653 1.20508 -1.54044
HEad  -46.5066 13.4525 -4.94047
LeftShoulder1  -1.94126e-019 -3.10601e-018 -2.51263e-017
LeftArm  -14.6847 29.0339 -79.6938
LeftForeArm  33.9609 -12.8192 -2.09086
LeftHand  -0.410518 -2.00633 6.63504
RightShoulder  -4.96962e-017 0 -2.36833e-017
RightArm  -36.055 -26.7561 76.4009
RightForeArm  60.9635 10.4656 1.53885
RightHand  -0.329629 -1.83037 -10.5699
LeftUpLeg  -8.36612 -0.956072 -3.6439
LeftLeg  11.4133 16.959 2.26622
LeftFoot  -0.110736 -6.85402e-005 0.0904264
LeftToes  -11.9846 1.49739e-006 1.00523e-007
